#N canvas 0 35 1920 1021 10;
#X obj 4 27 osc~ 480;
#X obj 20 47 osc~ 620;
#X obj 4 69 +~;
#X obj 25 155 dac~;
#X obj 25 106 *~;
#X obj 89 26 *~ 10000;
#X obj 89 46 clip~ 0 1;
#X obj 89 67 lop~ 100;
#X obj 89 5 osc~ 2;
#X msg 196 158 0.1;
#X obj 25 128 *~;
#X obj 279 135 loadbang;
#X connect 0 0 2 0;
#X connect 1 0 2 1;
#X connect 2 0 4 0;
#X connect 4 0 10 0;
#X connect 5 0 6 0;
#X connect 6 0 7 0;
#X connect 7 0 4 1;
#X connect 8 0 5 0;
#X connect 9 0 10 1;
#X connect 10 0 3 0;
#X connect 10 0 3 1;
#X connect 11 0 9 0;
