#N canvas 0 0 100 100 10;
#X msg 0 0 \; pd dsp 1;
#X obj 0 0 del 1000.0 1 msec;
#X obj 0 0 loadbang;
#X connect 2 0 1 0;
#X connect 1 0 0 0;
#X obj 0 0 dac~;
#X obj 0 0 *~;
#X msg 0 0 0.1;
#X obj 0 0 loadbang;
#X connect 6 0 5 0;
#X connect 5 0 4 0;
#X obj 0 0 *~;
#X obj 0 0 +~;
#X obj 0 0 osc~ 480.0;
#X connect 9 0 8 0;
#X obj 0 0 osc~ 620.0;
#X connect 10 0 8 1;
#X connect 8 0 7 0;
#X obj 0 0 lop~ 100.0;
#X obj 0 0 clip~ 0.0 1.0;
#X obj 0 0 *~;
#X obj 0 0 osc~ 2.0;
#X connect 14 0 13 0;
#X msg 0 0 10000.0;
#X obj 0 0 loadbang;
#X connect 16 0 15 0;
#X connect 15 0 13 1;
#X connect 13 0 12 0;
#X connect 12 0 11 0;
#X connect 11 0 7 1;
#X connect 7 0 4 1;
#X connect 4 0 3 0;
#X obj 0 0 *~;
#X msg 0 0 0.1;
#X obj 0 0 loadbang;
#X connect 19 0 18 0;
#X connect 18 0 17 0;
#X obj 0 0 *~;
#X obj 0 0 +~;
#X obj 0 0 osc~ 480.0;
#X connect 22 0 21 0;
#X obj 0 0 osc~ 620.0;
#X connect 23 0 21 1;
#X connect 21 0 20 0;
#X obj 0 0 lop~ 100.0;
#X obj 0 0 clip~ 0.0 1.0;
#X obj 0 0 *~;
#X obj 0 0 osc~ 2.0;
#X connect 27 0 26 0;
#X msg 0 0 10000.0;
#X obj 0 0 loadbang;
#X connect 29 0 28 0;
#X connect 28 0 26 1;
#X connect 26 0 25 0;
#X connect 25 0 24 0;
#X connect 24 0 20 1;
#X connect 20 0 17 1;
#X connect 17 0 3 1;

