#N canvas 0 0 100 100 10;
#X obj 0 0 loadbang;
#X obj 0 0 del 1000.0 1 msec;
#X connect 0 0 1 0;
#X msg 0 0 \; pd dsp 1;
#X connect 1 0 2 0;
#X obj 0 0 osc~ 480.0;
#X obj 0 0 osc~ 620.0;
#X obj 0 0 +~;
#X connect 3 0 5 0;
#X connect 4 0 5 1;
#X obj 0 0 osc~ 2.0;
#X obj 0 0 loadbang;
#X msg 0 0 10000.0;
#X connect 7 0 8 0;
#X obj 0 0 *~;
#X connect 6 0 9 0;
#X connect 8 0 9 1;
#X obj 0 0 clip~ 0.0 1.0;
#X connect 9 0 10 0;
#X obj 0 0 lop~ 100.0;
#X connect 10 0 11 0;
#X obj 0 0 *~;
#X connect 5 0 12 0;
#X connect 11 0 12 1;
#X obj 0 0 loadbang;
#X msg 0 0 0.1;
#X connect 13 0 14 0;
#X obj 0 0 *~;
#X connect 14 0 15 0;
#X connect 12 0 15 1;
#X obj 0 0 dac~;
#X connect 15 0 16 0;
#X connect 15 0 16 1;

